<svg xmlns="http://www.w3.org/2000/svg" xmlns:xlink="http://www.w3.org/1999/xlink" width="500" zoomAndPan="magnify" viewBox="0 0 375 374.999991" height="500" preserveAspectRatio="xMidYMid meet" version="1.0"><defs><clipPath id="c12c5b40fd"><path d="M 148.042969 101.105469 L 226.792969 101.105469 L 226.792969 202.355469 L 148.042969 202.355469 Z M 148.042969 101.105469 " clip-rule="nonzero"/></clipPath></defs><path fill="#9fccc3" d="M 200.777344 125.164062 L 167.585938 128.652344 L 160.648438 161.292969 L 189.550781 177.980469 L 214.347656 155.652344 L 200.777344 125.164062 " fill-opacity="1" fill-rule="nonzero"/><path fill="#43694d" d="M 185.726562 146.539062 C 182.351562 146.539062 179.101562 147.960938 176.800781 150.449219 C 176.230469 151.070312 176.265625 152.03125 176.886719 152.613281 C 177.507812 153.183594 178.476562 153.148438 179.058594 152.527344 C 180.796875 150.644531 183.164062 149.605469 185.726562 149.605469 C 188.289062 149.605469 190.65625 150.644531 192.402344 152.527344 C 192.703125 152.851562 193.109375 153.019531 193.527344 153.019531 C 193.894531 153.019531 194.269531 152.882812 194.566406 152.613281 C 195.1875 152.042969 195.222656 151.070312 194.648438 150.449219 C 192.351562 147.960938 189.109375 146.539062 185.726562 146.539062 " fill-opacity="1" fill-rule="nonzero"/><path fill="#43694d" d="M 197.65625 146.710938 C 197.953125 147.035156 198.375 147.203125 198.78125 147.203125 C 199.15625 147.203125 199.527344 147.066406 199.820312 146.796875 C 200.441406 146.21875 200.484375 145.253906 199.90625 144.632812 C 196.261719 140.691406 191.089844 138.425781 185.726562 138.425781 C 180.363281 138.425781 175.191406 140.691406 171.546875 144.632812 C 170.976562 145.253906 171.011719 146.21875 171.632812 146.796875 C 172.253906 147.363281 173.222656 147.332031 173.796875 146.710938 C 176.910156 143.34375 181.144531 141.492188 185.726562 141.492188 C 190.308594 141.492188 194.539062 143.34375 197.65625 146.710938 " fill-opacity="1" fill-rule="nonzero"/><path fill="#43694d" d="M 185.726562 153.589844 C 183.988281 153.589844 182.574219 155.003906 182.574219 156.75 C 182.574219 158.488281 183.988281 159.898438 185.726562 159.898438 C 187.472656 159.898438 188.875 158.488281 188.875 156.75 C 188.875 155.003906 187.472656 153.589844 185.726562 153.589844 " fill-opacity="1" fill-rule="nonzero"/><path fill="#43694d" d="M 187.804688 106.660156 L 183.519531 106.660156 C 182.667969 106.660156 181.988281 107.339844 181.988281 108.191406 C 181.988281 109.035156 182.667969 109.726562 183.519531 109.726562 L 187.804688 109.726562 C 188.65625 109.726562 189.335938 109.035156 189.335938 108.191406 C 189.335938 107.339844 188.65625 106.660156 187.804688 106.660156 " fill-opacity="1" fill-rule="nonzero"/><g clip-path="url(#c12c5b40fd)"><path fill="#43694d" d="M 160.632812 188.34375 C 161.0625 187.960938 161.300781 187.398438 161.269531 186.820312 C 161.242188 186.234375 160.953125 185.707031 160.46875 185.355469 L 157.214844 183.039062 L 173.164062 178.765625 L 167.484375 194.261719 L 165.355469 190.609375 C 165.050781 190.132812 164.554688 189.808594 163.992188 189.734375 C 163.4375 189.65625 162.878906 189.824219 162.433594 190.210938 L 156.003906 196.101562 C 155.980469 196.121094 155.945312 196.144531 155.929688 196.171875 L 153.289062 198.589844 L 151.527344 196.664062 Z M 158.6875 114.417969 L 212.765625 114.417969 L 212.765625 123.15625 C 206.503906 123.914062 201.644531 129.242188 201.644531 135.699219 C 201.644531 142.160156 206.503906 147.496094 212.765625 148.253906 L 212.765625 185.78125 L 173.855469 185.78125 L 176.800781 177.734375 C 177.050781 177.078125 176.910156 176.34375 176.441406 175.808594 C 175.964844 175.273438 175.242188 175.050781 174.519531 175.230469 L 158.6875 179.472656 Z M 158.6875 105.839844 C 158.6875 104.914062 159.445312 104.15625 160.375 104.15625 L 211.078125 104.15625 C 212.007812 104.15625 212.765625 104.914062 212.765625 105.839844 L 212.765625 111.351562 L 158.6875 111.351562 Z M 223.886719 135.699219 C 223.886719 140.988281 219.585938 145.289062 214.300781 145.289062 C 209.007812 145.289062 204.707031 140.988281 204.707031 135.699219 C 204.707031 130.417969 209.007812 126.121094 214.300781 126.121094 C 219.585938 126.121094 223.886719 130.417969 223.886719 135.699219 Z M 212.765625 194.015625 C 212.765625 194.945312 212.007812 195.703125 211.078125 195.703125 L 170.21875 195.703125 L 172.730469 188.847656 L 212.765625 188.847656 Z M 160.980469 195.703125 L 163.449219 193.4375 L 164.769531 195.703125 Z M 148.050781 196.503906 C 148.027344 197.058594 148.214844 197.585938 148.589844 198 L 151.664062 201.347656 C 152.0625 201.808594 152.625 202.054688 153.203125 202.054688 C 153.699219 202.054688 154.199219 201.875 154.617188 201.519531 L 157.632812 198.769531 L 211.078125 198.769531 C 213.691406 198.769531 215.828125 196.628906 215.828125 194.015625 L 215.828125 187.3125 C 215.828125 187.304688 215.828125 187.296875 215.828125 187.296875 L 215.828125 148.253906 C 222.082031 147.496094 226.953125 142.160156 226.953125 135.699219 C 226.953125 129.242188 222.082031 123.914062 215.828125 123.15625 L 215.828125 105.839844 C 215.828125 103.226562 213.691406 101.089844 211.078125 101.089844 L 160.375 101.089844 C 157.75 101.089844 155.621094 103.226562 155.621094 105.839844 L 155.621094 180.289062 L 154.039062 180.714844 C 153.316406 180.910156 152.777344 181.515625 152.648438 182.246094 C 152.53125 182.980469 152.847656 183.722656 153.441406 184.121094 L 157.53125 187.027344 L 148.726562 195.074219 C 148.3125 195.4375 148.078125 195.949219 148.050781 196.503906 " fill-opacity="1" fill-rule="nonzero"/></g><path fill="#43694d" d="M 211.464844 133.996094 L 212.761719 133.28125 L 212.761719 141.324219 C 212.761719 142.171875 213.449219 142.859375 214.296875 142.859375 C 215.140625 142.859375 215.828125 142.171875 215.828125 141.324219 L 215.828125 128.089844 L 209.984375 131.308594 C 209.242188 131.714844 208.972656 132.652344 209.382812 133.390625 C 209.789062 134.132812 210.722656 134.402344 211.464844 133.996094 " fill-opacity="1" fill-rule="nonzero"/></svg>