<svg xmlns="http://www.w3.org/2000/svg" xmlns:xlink="http://www.w3.org/1999/xlink" width="500" zoomAndPan="magnify" viewBox="0 0 375 374.999991" height="500" preserveAspectRatio="xMidYMid meet" version="1.0"><defs><clipPath id="ef7a474dcc"><path d="M 222 168 L 271.886719 168 L 271.886719 221 L 222 221 Z M 222 168 " clip-rule="nonzero"/></clipPath><clipPath id="c1cd8db6f5"><path d="M 91.136719 141.375 L 232 141.375 L 232 221 L 91.136719 221 Z M 91.136719 141.375 " clip-rule="nonzero"/></clipPath><clipPath id="dc331b47ca"><path d="M 230 211 L 253 211 L 253 233.484375 L 230 233.484375 Z M 230 211 " clip-rule="nonzero"/></clipPath><clipPath id="68ffd24f8f"><path d="M 139 211 L 162 211 L 162 233.484375 L 139 233.484375 Z M 139 211 " clip-rule="nonzero"/></clipPath></defs><g clip-path="url(#ef7a474dcc)"><path fill="#43694d" d="M 238.292969 189.144531 L 240.933594 174.785156 L 251.078125 174.785156 L 259.371094 189.144531 Z M 255.863281 168.957031 L 231.59375 168.957031 L 222.15625 220.359375 L 226.171875 220.359375 C 228.5625 212.808594 236.128906 206.964844 243.972656 206.964844 C 248.261719 206.964844 252.023438 208.644531 254.570312 211.703125 C 256.574219 214.105469 257.617188 217.109375 257.628906 220.359375 L 266.765625 220.359375 L 271.621094 193.917969 L 255.863281 168.957031 " fill-opacity="1" fill-rule="nonzero"/></g><g clip-path="url(#c1cd8db6f5)"><path fill="#43694d" d="M 151.582031 141.238281 C 147.363281 141.238281 143.527344 143.15625 140.980469 146.226562 L 105.890625 146.226562 C 104.144531 146.226562 102.726562 147.644531 102.726562 149.390625 C 102.726562 151.136719 104.144531 152.550781 105.890625 152.550781 L 155.03125 152.550781 L 155.03125 152.527344 L 173.703125 152.527344 C 175.40625 152.527344 176.890625 153.921875 176.84375 155.625 C 176.820312 156.421875 176.488281 157.144531 175.960938 157.675781 C 175.414062 158.21875 174.660156 158.558594 173.824219 158.558594 L 94.667969 158.558594 C 93.140625 158.558594 91.835938 159.648438 91.558594 161.148438 C 91.203125 163.09375 92.691406 164.882812 94.667969 164.882812 L 163.5625 164.882812 C 165.269531 164.882812 166.757812 166.277344 166.710938 167.980469 C 166.691406 168.78125 166.355469 169.503906 165.828125 170.035156 C 165.28125 170.578125 164.527344 170.917969 163.695312 170.917969 L 112.503906 170.917969 C 110.890625 170.917969 109.503906 172.070312 109.214844 173.660156 C 108.835938 175.714844 110.414062 177.613281 112.503906 177.613281 L 176.394531 177.613281 C 178.097656 177.613281 179.585938 179.007812 179.542969 180.710938 C 179.519531 181.511719 179.1875 182.234375 178.660156 182.765625 C 178.113281 183.308594 177.359375 183.648438 176.527344 183.648438 L 119.726562 183.648438 C 118.351562 183.648438 117.175781 184.628906 116.925781 185.980469 C 116.605469 187.730469 117.949219 189.339844 119.726562 189.339844 L 144.113281 189.339844 C 147.390625 189.339844 150.050781 190.691406 150.050781 192.355469 C 150.050781 193.191406 149.386719 193.945312 148.3125 194.488281 C 147.234375 195.035156 145.746094 195.371094 144.113281 195.371094 C 136.035156 195.371094 129.109375 201.140625 127.648438 209.082031 L 125.582031 220.359375 L 135.207031 220.359375 C 137.601562 212.804688 145.164062 206.964844 153.007812 206.964844 C 157.296875 206.964844 161.054688 208.644531 163.605469 211.703125 C 165.609375 214.105469 166.652344 217.109375 166.664062 220.359375 L 217.085938 220.359375 L 231.617188 141.238281 L 151.582031 141.238281 " fill-opacity="1" fill-rule="nonzero"/></g><g clip-path="url(#dc331b47ca)"><path fill="#43694d" d="M 243.972656 211.953125 C 238.742188 211.953125 233.675781 215.519531 231.496094 220.359375 C 231.132812 221.15625 230.851562 221.988281 230.65625 222.851562 C 230.628906 223 230.597656 223.152344 230.566406 223.300781 C 230.4375 224 230.378906 224.683594 230.382812 225.347656 C 230.390625 227.425781 231.039062 229.316406 232.277344 230.800781 C 233.863281 232.703125 236.269531 233.75 239.046875 233.75 C 244.273438 233.75 249.34375 230.179688 251.523438 225.347656 C 251.886719 224.546875 252.167969 223.707031 252.363281 222.851562 L 252.449219 222.402344 C 252.582031 221.703125 252.640625 221.019531 252.636719 220.359375 C 252.625 218.269531 251.976562 216.382812 250.738281 214.894531 C 249.152344 212.996094 246.75 211.953125 243.972656 211.953125 " fill-opacity="1" fill-rule="nonzero"/></g><g clip-path="url(#68ffd24f8f)"><path fill="#43694d" d="M 153.007812 211.953125 C 147.777344 211.953125 142.710938 215.519531 140.53125 220.359375 C 140.164062 221.15625 139.886719 221.988281 139.691406 222.851562 C 139.664062 223 139.632812 223.152344 139.601562 223.300781 C 139.472656 224 139.414062 224.683594 139.417969 225.347656 C 139.429688 227.425781 140.078125 229.316406 141.3125 230.800781 C 142.898438 232.703125 145.304688 233.75 148.082031 233.75 C 153.308594 233.75 158.378906 230.179688 160.558594 225.347656 C 160.921875 224.546875 161.203125 223.707031 161.394531 222.851562 L 161.484375 222.402344 C 161.617188 221.703125 161.675781 221.019531 161.671875 220.359375 C 161.660156 218.269531 161.011719 216.382812 159.773438 214.894531 C 158.1875 212.996094 155.785156 211.953125 153.007812 211.953125 " fill-opacity="1" fill-rule="nonzero"/></g></svg>