<svg xmlns="http://www.w3.org/2000/svg" xmlns:xlink="http://www.w3.org/1999/xlink" width="500" zoomAndPan="magnify" viewBox="0 0 375 374.999991" height="500" preserveAspectRatio="xMidYMid meet" version="1.0"><defs><clipPath id="9baac026dc"><path d="M 134 140.824219 L 241.097656 140.824219 L 241.097656 233.824219 L 134 233.824219 Z M 134 140.824219 " clip-rule="nonzero"/></clipPath></defs><path fill="#43694d" d="M 167.761719 204.613281 L 171.730469 204.613281 L 171.730469 200.644531 L 167.761719 200.644531 L 167.761719 204.613281 " fill-opacity="1" fill-rule="nonzero"/><path fill="#43694d" d="M 207.429688 200.644531 L 203.460938 200.644531 L 203.460938 204.613281 L 207.429688 204.613281 L 207.429688 200.644531 " fill-opacity="1" fill-rule="nonzero"/><path fill="#43694d" d="M 185.613281 186.761719 L 185.613281 190.28125 C 182.296875 190.535156 179.660156 193.292969 179.660156 196.679688 L 179.660156 198.167969 C 179.660156 201.714844 182.550781 204.613281 186.109375 204.613281 L 189.082031 204.613281 C 190.453125 204.613281 191.5625 205.71875 191.5625 207.089844 L 191.5625 208.578125 C 191.5625 209.941406 190.453125 211.058594 189.082031 211.058594 L 186.109375 211.058594 C 184.738281 211.058594 183.628906 209.941406 183.628906 208.578125 L 179.660156 208.578125 C 179.660156 211.957031 182.296875 214.714844 185.613281 214.96875 L 185.613281 218.496094 L 189.578125 218.496094 L 189.578125 214.96875 C 192.894531 214.714844 195.527344 211.957031 195.527344 208.578125 L 195.527344 207.089844 C 195.527344 203.535156 192.640625 200.644531 189.082031 200.644531 L 186.109375 200.644531 C 184.738281 200.644531 183.628906 199.53125 183.628906 198.167969 L 183.628906 196.679688 C 183.628906 195.308594 184.738281 194.199219 186.109375 194.199219 L 189.082031 194.199219 C 190.453125 194.199219 191.5625 195.308594 191.5625 196.679688 L 195.527344 196.679688 C 195.527344 193.292969 192.894531 190.535156 189.578125 190.28125 L 189.578125 186.761719 L 185.613281 186.761719 " fill-opacity="1" fill-rule="nonzero"/><g clip-path="url(#9baac026dc)"><path fill="#43694d" d="M 146.085938 197.902344 L 153.539062 206.59375 L 149.914062 206.59375 C 149.324219 206.59375 148.757812 206.859375 148.378906 207.316406 C 148.007812 207.765625 147.851562 208.371094 147.96875 208.949219 C 149.742188 218.101562 154.097656 223.964844 158.613281 227.691406 C 147.417969 222.105469 144.847656 208.84375 144.714844 208.105469 C 144.542969 207.160156 143.714844 206.480469 142.761719 206.480469 C 142.746094 206.480469 142.738281 206.480469 142.730469 206.480469 L 139.933594 206.527344 Z M 147.929688 153.046875 C 147.929688 151.945312 148.820312 151.0625 149.914062 151.0625 L 183.628906 151.0625 C 184.722656 151.0625 185.613281 151.945312 185.613281 153.046875 L 185.613281 155.03125 C 185.613281 156.121094 184.722656 157.011719 183.628906 157.011719 L 149.914062 157.011719 C 148.820312 157.011719 147.929688 156.121094 147.929688 155.03125 Z M 211.394531 202.628906 C 211.394531 207.671875 209.828125 212.453125 206.902344 216.511719 L 199.496094 216.511719 C 196.210938 216.511719 193.546875 219.175781 193.546875 222.460938 L 193.546875 224.4375 C 193.546875 224.847656 193.589844 225.25 193.667969 225.636719 C 191.695312 226.15625 189.65625 226.421875 187.59375 226.421875 C 174.472656 226.421875 163.796875 215.746094 163.796875 202.628906 C 163.796875 189.503906 174.472656 178.828125 187.59375 178.828125 C 200.71875 178.828125 211.394531 189.503906 211.394531 202.628906 Z M 225.277344 190.730469 C 226.371094 190.730469 227.261719 191.613281 227.261719 192.710938 L 227.261719 194.695312 C 227.261719 195.789062 226.371094 196.679688 225.277344 196.679688 L 214.703125 196.679688 C 214.246094 194.59375 213.539062 192.605469 212.640625 190.730469 Z M 215.261719 200.644531 L 225.277344 200.644531 C 226.371094 200.644531 227.261719 201.527344 227.261719 202.628906 L 227.261719 204.613281 C 227.261719 205.703125 226.371094 206.59375 225.277344 206.59375 L 215.066406 206.59375 C 215.253906 205.285156 215.363281 203.96875 215.363281 202.628906 C 215.363281 201.953125 215.308594 201.304688 215.261719 200.644531 Z M 211.628906 216.511719 C 212.71875 214.621094 213.578125 212.628906 214.191406 210.5625 L 225.277344 210.5625 C 226.371094 210.5625 227.261719 211.445312 227.261719 212.546875 L 227.261719 214.527344 C 227.261719 215.621094 226.371094 216.511719 225.277344 216.511719 Z M 235.195312 222.460938 L 235.195312 224.4375 C 235.195312 225.539062 234.304688 226.421875 233.210938 226.421875 L 199.496094 226.421875 C 198.402344 226.421875 197.511719 225.539062 197.511719 224.4375 L 197.511719 222.460938 C 197.511719 221.363281 198.402344 220.476562 199.496094 220.476562 L 233.210938 220.476562 C 234.304688 220.476562 235.195312 221.363281 235.195312 222.460938 Z M 159.929688 200.644531 C 159.882812 201.304688 159.828125 201.953125 159.828125 202.628906 C 159.828125 203.976562 159.960938 205.292969 160.148438 206.59375 L 158.761719 206.59375 L 153.65625 200.644531 Z M 147.929688 164.945312 L 147.929688 162.960938 C 147.929688 161.863281 148.820312 160.980469 149.914062 160.980469 L 183.628906 160.980469 C 184.722656 160.980469 185.613281 161.863281 185.613281 162.960938 L 185.613281 164.945312 C 185.613281 166.039062 184.722656 166.929688 183.628906 166.929688 L 149.914062 166.929688 C 148.820312 166.929688 147.929688 166.039062 147.929688 164.945312 Z M 147.929688 174.863281 L 147.929688 172.878906 C 147.929688 171.777344 148.820312 170.894531 149.914062 170.894531 L 183.628906 170.894531 C 184.722656 170.894531 185.613281 171.777344 185.613281 172.878906 L 185.613281 174.863281 C 185.613281 174.894531 185.597656 174.925781 185.597656 174.957031 C 182.707031 175.164062 179.933594 175.808594 177.351562 176.847656 L 149.914062 176.847656 C 148.820312 176.847656 147.929688 175.953125 147.929688 174.863281 Z M 147.929688 184.777344 L 147.929688 182.796875 C 147.929688 181.695312 148.820312 180.8125 149.914062 180.8125 L 170.472656 180.8125 C 168.320312 182.5 166.414062 184.507812 164.839844 186.761719 L 149.914062 186.761719 C 148.820312 186.761719 147.929688 185.871094 147.929688 184.777344 Z M 147.929688 192.710938 C 147.929688 191.613281 148.820312 190.730469 149.914062 190.730469 L 162.546875 190.730469 C 161.648438 192.605469 160.945312 194.59375 160.488281 196.679688 L 150.253906 196.679688 L 147.929688 193.960938 Z M 154.644531 216.511719 C 153.761719 214.753906 152.988281 212.785156 152.398438 210.5625 L 161 210.5625 C 161.625 212.660156 162.5 214.644531 163.585938 216.511719 Z M 134.269531 209.5 C 134.621094 210.152344 135.292969 210.5625 136.027344 210.5625 C 136.042969 210.5625 136.050781 210.5625 136.058594 210.5625 L 141.210938 210.46875 C 142.746094 216.101562 149.269531 234.105469 169.597656 234.105469 C 170.457031 234.105469 171.332031 234.074219 172.246094 234.003906 C 173.253906 233.933594 174.046875 233.113281 174.078125 232.097656 C 174.113281 231.085938 173.378906 230.210938 172.371094 230.0625 C 171.875 229.992188 163.230469 228.628906 157.109375 220.476562 L 166.359375 220.476562 C 171.449219 226.527344 179.082031 230.386719 187.59375 230.386719 C 190.414062 230.386719 193.1875 229.945312 195.855469 229.109375 C 196.859375 229.898438 198.117188 230.386719 199.496094 230.386719 L 233.210938 230.386719 C 236.496094 230.386719 239.160156 227.722656 239.160156 224.4375 L 239.160156 222.460938 C 239.160156 219.175781 236.496094 216.511719 233.210938 216.511719 L 230.863281 216.511719 C 231.082031 215.882812 231.226562 215.226562 231.226562 214.527344 L 231.226562 212.546875 C 231.226562 211.011719 230.632812 209.632812 229.679688 208.578125 C 230.632812 207.515625 231.226562 206.136719 231.226562 204.613281 L 231.226562 202.628906 C 231.226562 201.09375 230.632812 199.714844 229.679688 198.660156 C 230.632812 197.601562 231.226562 196.222656 231.226562 194.695312 L 231.226562 192.710938 C 231.226562 189.425781 228.5625 186.761719 225.277344 186.761719 L 210.347656 186.761719 C 205.675781 180.085938 198.164062 175.566406 189.5625 174.957031 C 189.5625 174.925781 189.578125 174.894531 189.578125 174.863281 L 189.578125 172.878906 C 189.578125 171.445312 189.050781 170.152344 188.207031 169.121094 L 201.570312 155.757812 L 216.042969 168.417969 C 216.847656 169.121094 218.074219 169.058594 218.808594 168.261719 L 237.179688 148.226562 L 237.179688 152.789062 L 241.144531 152.789062 L 241.144531 142.875 C 241.144531 141.78125 240.253906 140.890625 239.160156 140.890625 L 229.246094 140.890625 L 229.246094 144.855469 L 234.882812 144.855469 L 217.191406 164.15625 L 202.78125 151.550781 C 202.003906 150.859375 200.8125 150.898438 200.074219 151.636719 L 189.5 162.210938 C 189.347656 160.980469 188.820312 159.871094 188.027344 158.996094 C 188.980469 157.933594 189.578125 156.554688 189.578125 155.03125 L 189.578125 153.046875 C 189.578125 149.761719 186.914062 147.097656 183.628906 147.097656 L 149.914062 147.097656 C 146.628906 147.097656 143.960938 149.761719 143.960938 153.046875 L 143.960938 155.03125 C 143.960938 156.554688 144.558594 157.933594 145.511719 158.996094 C 144.558594 160.050781 143.960938 161.429688 143.960938 162.960938 L 143.960938 164.945312 C 143.960938 166.472656 144.558594 167.851562 145.511719 168.914062 C 144.558594 169.964844 143.960938 171.34375 143.960938 172.878906 L 143.960938 174.863281 C 143.960938 176.386719 144.558594 177.769531 145.511719 178.828125 C 144.558594 179.882812 143.960938 181.261719 143.960938 182.796875 L 143.960938 184.777344 C 143.960938 186.304688 144.558594 187.683594 145.511719 188.746094 C 144.558594 189.800781 143.960938 191.179688 143.960938 192.710938 L 143.960938 194.050781 L 134.417969 207.425781 C 133.984375 208.027344 133.921875 208.835938 134.269531 209.5 " fill-opacity="1" fill-rule="nonzero"/></g></svg>